<svg xmlns="http://www.w3.org/2000/svg" width="81.076" height="84.453" viewBox="0 0 81.076 84.453">
  <path id="Path_95" data-name="Path 95" d="M825.939,36.837v6.192c-.154,1.183-.3,2.367-.454,3.551A40.881,40.881,0,0,1,820.094,61.8c-4.053,7.05-9.468,12.864-15.354,18.25a182.5,182.5,0,0,1-24.368,18.285c-.187-.42-.373-.8-.535-1.192a79.816,79.816,0,0,0-15.6-23.791c-3.413-3.611-6.923-7.127-10.32-10.755a34.239,34.239,0,0,1-6.671-9.786,30.621,30.621,0,0,1-2.221-14.94,22,22,0,0,1,3.243-10.292,17.3,17.3,0,0,1,11.56-7.8,23.33,23.33,0,0,1,16.894,2.573,20.1,20.1,0,0,1,7.4,7.144c.251-.489.486-.943.713-1.4a33.751,33.751,0,0,1,6.331-9.065,16.838,16.838,0,0,1,14.219-5.026,21.284,21.284,0,0,1,13.822,6.93,25.786,25.786,0,0,1,6.428,13.894C825.728,35.525,825.85,36.185,825.939,36.837Z" transform="translate(-744.863 -13.885)" fill="#ffd54b"/>
</svg>
